<svg width="359" height="226" viewBox="0 0 359 226" fill="none" xmlns="http://www.w3.org/2000/svg">
<rect width="359" height="226" rx="20" fill="white"/>
<path d="M73.3279 206H78.8336V205.062H74.7768V204.994L76.737 202.898C78.237 201.291 78.6802 200.541 78.6802 199.574C78.6802 198.227 77.5893 197.153 76.0552 197.153C74.5254 197.153 73.362 198.193 73.362 199.727H74.3677C74.3677 198.734 75.0112 198.074 76.0211 198.074C76.9671 198.074 77.6916 198.653 77.6916 199.574C77.6916 200.379 77.2186 200.976 76.2086 202.08L73.3279 205.233V206ZM83.4401 206.119C85.3663 206.119 86.4742 204.487 86.4742 201.636C86.4742 198.807 85.3492 197.153 83.4401 197.153C81.5311 197.153 80.4061 198.807 80.4061 201.636C80.4061 204.487 81.514 206.119 83.4401 206.119ZM83.4401 205.182C82.1703 205.182 81.4288 203.908 81.4288 201.636C81.4288 199.369 82.1788 198.074 83.4401 198.074C84.7015 198.074 85.4515 199.369 85.4515 201.636C85.4515 203.908 84.71 205.182 83.4401 205.182ZM91.1617 197.273H90.1049L87.9231 198.722V199.795L90.0538 198.381H90.1049V206H91.1617V197.273ZM96.5694 206.119C98.3336 206.141 99.4842 204.811 99.4842 203.188C99.4842 201.5 98.2356 200.29 96.7399 200.29C95.8407 200.29 95.0694 200.729 94.5921 201.449H94.524C94.5282 199.322 95.3549 198.091 96.7058 198.091C97.6262 198.091 98.1802 198.67 98.3762 199.455H99.416C99.2029 198.099 98.1717 197.153 96.7058 197.153C94.7413 197.153 93.5353 198.892 93.5353 201.977C93.5353 205.203 95.1376 206.102 96.5694 206.119ZM96.5694 205.182C95.4742 205.182 94.6731 204.249 94.6774 203.205C94.6816 202.161 95.5211 201.227 96.6035 201.227C97.6731 201.227 98.4615 202.105 98.4615 203.188C98.4615 204.295 97.639 205.182 96.5694 205.182Z" fill="#718EBF"/>
<path d="M121.831 206H127.336V205.062H123.279V204.994L125.24 202.898C126.74 201.291 127.183 200.541 127.183 199.574C127.183 198.227 126.092 197.153 124.558 197.153C123.028 197.153 121.865 198.193 121.865 199.727H122.87C122.87 198.734 123.514 198.074 124.524 198.074C125.47 198.074 126.194 198.653 126.194 199.574C126.194 200.379 125.721 200.976 124.711 202.08L121.831 205.233V206ZM131.943 206.119C133.869 206.119 134.977 204.487 134.977 201.636C134.977 198.807 133.852 197.153 131.943 197.153C130.034 197.153 128.909 198.807 128.909 201.636C128.909 204.487 130.017 206.119 131.943 206.119ZM131.943 205.182C130.673 205.182 129.931 203.908 129.931 201.636C129.931 199.369 130.681 198.074 131.943 198.074C133.204 198.074 133.954 199.369 133.954 201.636C133.954 203.908 133.213 205.182 131.943 205.182ZM139.664 197.273H138.608L136.426 198.722V199.795L138.556 198.381H138.608V206H139.664V197.273ZM142.447 206H143.555L147.441 198.261V197.273H141.851V198.21H146.351V198.278L142.447 206Z" fill="#718EBF"/>
<path d="M169.747 206H175.253V205.062H171.196V204.994L173.156 202.898C174.656 201.291 175.1 200.541 175.1 199.574C175.1 198.227 174.009 197.153 172.475 197.153C170.945 197.153 169.781 198.193 169.781 199.727H170.787C170.787 198.734 171.431 198.074 172.441 198.074C173.387 198.074 174.111 198.653 174.111 199.574C174.111 200.379 173.638 200.976 172.628 202.08L169.747 205.233V206ZM179.86 206.119C181.786 206.119 182.894 204.487 182.894 201.636C182.894 198.807 181.769 197.153 179.86 197.153C177.95 197.153 176.825 198.807 176.825 201.636C176.825 204.487 177.933 206.119 179.86 206.119ZM179.86 205.182C178.59 205.182 177.848 203.908 177.848 201.636C177.848 199.369 178.598 198.074 179.86 198.074C181.121 198.074 181.871 199.369 181.871 201.636C181.871 203.908 181.129 205.182 179.86 205.182ZM187.581 197.273H186.524L184.343 198.722V199.795L186.473 198.381H186.524V206H187.581V197.273ZM192.887 206.119C194.629 206.119 195.844 205.101 195.852 203.682C195.844 202.578 195.107 201.641 194.165 201.466V201.415C194.983 201.202 195.52 200.401 195.529 199.472C195.52 198.142 194.404 197.153 192.887 197.153C191.352 197.153 190.236 198.142 190.245 199.472C190.236 200.401 190.773 201.202 191.608 201.415V201.466C190.649 201.641 189.912 202.578 189.921 203.682C189.912 205.101 191.127 206.119 192.887 206.119ZM192.887 205.182C191.689 205.182 190.952 204.568 190.96 203.631C190.952 202.646 191.766 201.943 192.887 201.943C193.99 201.943 194.804 202.646 194.813 203.631C194.804 204.568 194.067 205.182 192.887 205.182ZM192.887 201.04C191.932 201.04 191.259 200.443 191.267 199.54C191.259 198.653 191.906 198.074 192.887 198.074C193.85 198.074 194.497 198.653 194.506 199.54C194.497 200.443 193.824 201.04 192.887 201.04Z" fill="#718EBF"/>
<path d="M218.382 206H223.887V205.062H219.831V204.994L221.791 202.898C223.291 201.291 223.734 200.541 223.734 199.574C223.734 198.227 222.643 197.153 221.109 197.153C219.579 197.153 218.416 198.193 218.416 199.727H219.421C219.421 198.734 220.065 198.074 221.075 198.074C222.021 198.074 222.745 198.653 222.745 199.574C222.745 200.379 222.272 200.976 221.262 202.08L218.382 205.233V206ZM228.494 206.119C230.42 206.119 231.528 204.487 231.528 201.636C231.528 198.807 230.403 197.153 228.494 197.153C226.585 197.153 225.46 198.807 225.46 201.636C225.46 204.487 226.568 206.119 228.494 206.119ZM228.494 205.182C227.224 205.182 226.482 203.908 226.482 201.636C226.482 199.369 227.232 198.074 228.494 198.074C229.755 198.074 230.505 199.369 230.505 201.636C230.505 203.908 229.764 205.182 228.494 205.182ZM236.215 197.273H235.159L232.977 198.722V199.795L235.107 198.381H235.159V206H236.215V197.273ZM241.504 197.153C239.731 197.132 238.589 198.466 238.589 200.068C238.589 201.756 239.833 202.966 241.333 202.966C242.237 202.966 243.004 202.523 243.481 201.807H243.549C243.549 203.955 242.714 205.182 241.367 205.182C240.447 205.182 239.884 204.602 239.697 203.801H238.657C238.862 205.182 239.902 206.119 241.367 206.119C243.328 206.119 244.538 204.381 244.538 201.278C244.538 198.074 242.936 197.17 241.504 197.153ZM241.504 198.091C242.595 198.091 243.396 199.028 243.396 200.051C243.396 201.091 242.544 202.028 241.47 202.028C240.396 202.028 239.612 201.159 239.612 200.068C239.612 198.977 240.43 198.091 241.504 198.091Z" fill="#718EBF"/>
<path d="M265.873 206H271.378V205.062H267.322V204.994L269.282 202.898C270.782 201.291 271.225 200.541 271.225 199.574C271.225 198.227 270.134 197.153 268.6 197.153C267.07 197.153 265.907 198.193 265.907 199.727H266.912C266.912 198.734 267.556 198.074 268.566 198.074C269.512 198.074 270.236 198.653 270.236 199.574C270.236 200.379 269.763 200.976 268.753 202.08L265.873 205.233V206ZM275.985 206.119C277.911 206.119 279.019 204.487 279.019 201.636C279.019 198.807 277.894 197.153 275.985 197.153C274.076 197.153 272.951 198.807 272.951 201.636C272.951 204.487 274.059 206.119 275.985 206.119ZM275.985 205.182C274.715 205.182 273.973 203.908 273.973 201.636C273.973 199.369 274.723 198.074 275.985 198.074C277.246 198.074 277.996 199.369 277.996 201.636C277.996 203.908 277.255 205.182 275.985 205.182ZM280.638 206H286.144V205.062H282.087V204.994L284.047 202.898C285.547 201.291 285.991 200.541 285.991 199.574C285.991 198.227 284.9 197.153 283.366 197.153C281.836 197.153 280.672 198.193 280.672 199.727H281.678C281.678 198.734 282.322 198.074 283.331 198.074C284.277 198.074 285.002 198.653 285.002 199.574C285.002 200.379 284.529 200.976 283.519 202.08L280.638 205.233V206ZM290.75 206.119C292.677 206.119 293.785 204.487 293.785 201.636C293.785 198.807 292.66 197.153 290.75 197.153C288.841 197.153 287.716 198.807 287.716 201.636C287.716 204.487 288.824 206.119 290.75 206.119ZM290.75 205.182C289.481 205.182 288.739 203.908 288.739 201.636C288.739 199.369 289.489 198.074 290.75 198.074C292.012 198.074 292.762 199.369 292.762 201.636C292.762 203.908 292.02 205.182 290.75 205.182Z" fill="#718EBF"/>
<path d="M313.834 206H319.339V205.062H315.282V204.994L317.243 202.898C318.743 201.291 319.186 200.541 319.186 199.574C319.186 198.227 318.095 197.153 316.561 197.153C315.031 197.153 313.868 198.193 313.868 199.727H314.873C314.873 198.734 315.517 198.074 316.527 198.074C317.473 198.074 318.197 198.653 318.197 199.574C318.197 200.379 317.724 200.976 316.714 202.08L313.834 205.233V206ZM323.946 206.119C325.872 206.119 326.98 204.487 326.98 201.636C326.98 198.807 325.855 197.153 323.946 197.153C322.037 197.153 320.912 198.807 320.912 201.636C320.912 204.487 322.02 206.119 323.946 206.119ZM323.946 205.182C322.676 205.182 321.934 203.908 321.934 201.636C321.934 199.369 322.684 198.074 323.946 198.074C325.207 198.074 325.957 199.369 325.957 201.636C325.957 203.908 325.216 205.182 323.946 205.182ZM328.599 206H334.105V205.062H330.048V204.994L332.008 202.898C333.508 201.291 333.951 200.541 333.951 199.574C333.951 198.227 332.861 197.153 331.326 197.153C329.797 197.153 328.633 198.193 328.633 199.727H329.639C329.639 198.734 330.282 198.074 331.292 198.074C332.238 198.074 332.963 198.653 332.963 199.574C332.963 200.379 332.49 200.976 331.48 202.08L328.599 205.233V206ZM338.933 197.273H337.876L335.694 198.722V199.795L337.825 198.381H337.876V206H338.933V197.273Z" fill="#718EBF"/>
<path d="M22.4621 148.091H23.161V147.141C24.9508 147.017 25.9565 145.96 25.9565 144.631C25.9565 142.994 24.4053 142.466 23.5019 142.227L23.161 142.134V139.104C24.0644 139.193 24.7207 139.679 24.8144 140.455H25.8371C25.7945 139.21 24.7036 138.264 23.161 138.162V137.182H22.4621V138.175C21.0005 138.324 19.9053 139.253 19.9053 140.591C19.9053 141.767 20.7576 142.466 22.1212 142.858L22.4621 142.956V146.182C21.5672 146.088 20.8343 145.628 20.7576 144.75H19.6667C19.7647 146.092 20.7874 147.03 22.4621 147.141V148.091ZM23.161 146.182V143.156L23.1951 143.165C24.1155 143.42 24.9337 143.744 24.9337 144.614C24.9337 145.47 24.1922 146.067 23.161 146.182ZM22.4621 141.946C21.8144 141.763 20.928 141.405 20.928 140.54C20.928 139.803 21.5246 139.24 22.4621 139.116V141.946ZM30.6088 138.273H29.552L27.3702 139.722V140.795L29.5008 139.381H29.552V147H30.6088V138.273ZM35.9653 147.119C37.8915 147.119 38.9994 145.487 38.9994 142.636C38.9994 139.807 37.8744 138.153 35.9653 138.153C34.0562 138.153 32.9312 139.807 32.9312 142.636C32.9312 145.487 34.0392 147.119 35.9653 147.119ZM35.9653 146.182C34.6954 146.182 33.954 144.908 33.954 142.636C33.954 140.369 34.704 139.074 35.9653 139.074C37.2267 139.074 37.9767 140.369 37.9767 142.636C37.9767 144.908 37.2352 146.182 35.9653 146.182ZM41.8311 145.807H40.7402L40.6891 146.284C40.5655 147.439 40.3226 148.589 40.2118 149.131H40.9788C41.1834 148.551 41.618 147.239 41.7629 146.267L41.8311 145.807ZM46.2192 147.119C48.1454 147.119 49.2533 145.487 49.2533 142.636C49.2533 139.807 48.1283 138.153 46.2192 138.153C44.3101 138.153 43.1851 139.807 43.1851 142.636C43.1851 145.487 44.2931 147.119 46.2192 147.119ZM46.2192 146.182C44.9494 146.182 44.2079 144.908 44.2079 142.636C44.2079 140.369 44.9579 139.074 46.2192 139.074C47.4806 139.074 48.2306 140.369 48.2306 142.636C48.2306 144.908 47.4891 146.182 46.2192 146.182ZM53.7192 147.119C55.6454 147.119 56.7533 145.487 56.7533 142.636C56.7533 139.807 55.6283 138.153 53.7192 138.153C51.8101 138.153 50.6851 139.807 50.6851 142.636C50.6851 145.487 51.7931 147.119 53.7192 147.119ZM53.7192 146.182C52.4494 146.182 51.7079 144.908 51.7079 142.636C51.7079 140.369 52.4579 139.074 53.7192 139.074C54.9806 139.074 55.7306 140.369 55.7306 142.636C55.7306 144.908 54.9891 146.182 53.7192 146.182ZM61.2192 147.119C63.1454 147.119 64.2533 145.487 64.2533 142.636C64.2533 139.807 63.1283 138.153 61.2192 138.153C59.3101 138.153 58.1851 139.807 58.1851 142.636C58.1851 145.487 59.2931 147.119 61.2192 147.119ZM61.2192 146.182C59.9494 146.182 59.2079 144.908 59.2079 142.636C59.2079 140.369 59.9579 139.074 61.2192 139.074C62.4806 139.074 63.2306 140.369 63.2306 142.636C63.2306 144.908 62.4891 146.182 61.2192 146.182Z" fill="#718EBF"/>
<path d="M20.7951 109.091H21.494V108.141C23.2838 108.017 24.2895 106.96 24.2895 105.631C24.2895 103.994 22.7383 103.466 21.8349 103.227L21.494 103.134V100.104C22.3974 100.193 23.0537 100.679 23.1474 101.455H24.1701C24.1275 100.21 23.0366 99.2642 21.494 99.1619V98.1818H20.7951V99.1747C19.3335 99.3239 18.2383 100.253 18.2383 101.591C18.2383 102.767 19.0906 103.466 20.4542 103.858L20.7951 103.956V107.182C19.9003 107.088 19.1673 106.628 19.0906 105.75H17.9997C18.0977 107.092 19.1204 108.03 20.7951 108.141V109.091ZM21.494 107.182V104.156L21.5281 104.165C22.4486 104.42 23.2667 104.744 23.2667 105.614C23.2667 106.47 22.5253 107.067 21.494 107.182ZM20.7951 102.946C20.1474 102.763 19.2611 102.405 19.2611 101.54C19.2611 100.803 19.8576 100.24 20.7951 100.116V102.946ZM25.8736 108H31.3793V107.062H27.3225V106.994L29.2827 104.898C30.7827 103.291 31.2259 102.541 31.2259 101.574C31.2259 100.227 30.135 99.1534 28.6009 99.1534C27.0711 99.1534 25.9077 100.193 25.9077 101.727H26.9134C26.9134 100.734 27.5569 100.074 28.5668 100.074C29.5128 100.074 30.2373 100.653 30.2373 101.574C30.2373 102.379 29.7642 102.976 28.7543 104.08L25.8736 107.233V108ZM35.9858 108.119C37.912 108.119 39.0199 106.487 39.0199 103.636C39.0199 100.807 37.8949 99.1534 35.9858 99.1534C34.0767 99.1534 32.9517 100.807 32.9517 103.636C32.9517 106.487 34.0597 108.119 35.9858 108.119ZM35.9858 107.182C34.716 107.182 33.9745 105.908 33.9745 103.636C33.9745 101.369 34.7245 100.074 35.9858 100.074C37.2472 100.074 37.9972 101.369 37.9972 103.636C37.9972 105.908 37.2557 107.182 35.9858 107.182ZM41.8516 106.807H40.7607L40.7096 107.284C40.586 108.439 40.3431 109.589 40.2323 110.131H40.9993C41.2039 109.551 41.6385 108.239 41.7834 107.267L41.8516 106.807ZM46.2397 108.119C48.1659 108.119 49.2738 106.487 49.2738 103.636C49.2738 100.807 48.1488 99.1534 46.2397 99.1534C44.3307 99.1534 43.2057 100.807 43.2057 103.636C43.2057 106.487 44.3136 108.119 46.2397 108.119ZM46.2397 107.182C44.9699 107.182 44.2284 105.908 44.2284 103.636C44.2284 101.369 44.9784 100.074 46.2397 100.074C47.5011 100.074 48.2511 101.369 48.2511 103.636C48.2511 105.908 47.5096 107.182 46.2397 107.182ZM53.7397 108.119C55.6659 108.119 56.7738 106.487 56.7738 103.636C56.7738 100.807 55.6488 99.1534 53.7397 99.1534C51.8307 99.1534 50.7057 100.807 50.7057 103.636C50.7057 106.487 51.8136 108.119 53.7397 108.119ZM53.7397 107.182C52.4699 107.182 51.7284 105.908 51.7284 103.636C51.7284 101.369 52.4784 100.074 53.7397 100.074C55.0011 100.074 55.7511 101.369 55.7511 103.636C55.7511 105.908 55.0096 107.182 53.7397 107.182ZM61.2397 108.119C63.1659 108.119 64.2738 106.487 64.2738 103.636C64.2738 100.807 63.1488 99.1534 61.2397 99.1534C59.3307 99.1534 58.2057 100.807 58.2057 103.636C58.2057 106.487 59.3136 108.119 61.2397 108.119ZM61.2397 107.182C59.9699 107.182 59.2284 105.908 59.2284 103.636C59.2284 101.369 59.9784 100.074 61.2397 100.074C62.5011 100.074 63.2511 101.369 63.2511 103.636C63.2511 105.908 62.5096 107.182 61.2397 107.182Z" fill="#718EBF"/>
<path d="M20.8851 70.0909H21.584V69.1406C23.3738 69.017 24.3794 67.9602 24.3794 66.6307C24.3794 64.9943 22.8283 64.4659 21.9249 64.2273L21.584 64.1335V61.1037C22.4874 61.1932 23.1437 61.679 23.2374 62.4545H24.2601C24.2175 61.2102 23.1266 60.2642 21.584 60.1619V59.1818H20.8851V60.1747C19.4235 60.3239 18.3283 61.2528 18.3283 62.5909C18.3283 63.767 19.1806 64.4659 20.5442 64.858L20.8851 64.956V68.1818C19.9902 68.0881 19.2573 67.6278 19.1806 66.75H18.0897C18.1877 68.0923 19.2104 69.0298 20.8851 69.1406V70.0909ZM21.584 68.1818V65.1562L21.6181 65.1648C22.5385 65.4205 23.3567 65.7443 23.3567 66.6136C23.3567 67.4702 22.6152 68.0668 21.584 68.1818ZM20.8851 63.946C20.2374 63.7628 19.351 63.4048 19.351 62.5398C19.351 61.8026 19.9476 61.2401 20.8851 61.1165V63.946ZM28.9125 69.1193C30.6042 69.1193 31.8613 68.0582 31.8613 66.6307C31.8613 65.5227 31.2051 64.7173 30.1057 64.5341V64.4659C30.9878 64.1974 31.5375 63.473 31.5375 62.4886C31.5375 61.2528 30.5616 60.1534 28.9466 60.1534C27.438 60.1534 26.1852 61.0824 26.1341 62.4545H27.1568C27.1951 61.5852 28.0218 61.0739 28.9295 61.0739C29.8926 61.0739 30.5147 61.6577 30.5147 62.5398C30.5147 63.4602 29.7946 64.0568 28.7591 64.0568H28.0602V64.9943H28.7591C30.0843 64.9943 30.8216 65.6676 30.8216 66.6307C30.8216 67.5554 30.0162 68.1818 28.8954 68.1818C27.8855 68.1818 27.0843 67.6619 27.0204 66.8182H25.9466C26.0105 68.1903 27.2207 69.1193 28.9125 69.1193ZM36.4508 69.1193C38.377 69.1193 39.4849 67.4872 39.4849 64.6364C39.4849 61.8068 38.3599 60.1534 36.4508 60.1534C34.5417 60.1534 33.4167 61.8068 33.4167 64.6364C33.4167 67.4872 34.5247 69.1193 36.4508 69.1193ZM36.4508 68.1818C35.1809 68.1818 34.4395 66.9077 34.4395 64.6364C34.4395 62.3693 35.1895 61.0739 36.4508 61.0739C37.7122 61.0739 38.4622 62.3693 38.4622 64.6364C38.4622 66.9077 37.7207 68.1818 36.4508 68.1818ZM42.3166 67.8068H41.2257L41.1745 68.2841C41.051 69.4389 40.8081 70.5895 40.6973 71.1307H41.4643C41.6689 70.5511 42.1035 69.2386 42.2484 68.267L42.3166 67.8068ZM46.7047 69.1193C48.6309 69.1193 49.7388 67.4872 49.7388 64.6364C49.7388 61.8068 48.6138 60.1534 46.7047 60.1534C44.7956 60.1534 43.6706 61.8068 43.6706 64.6364C43.6706 67.4872 44.7786 69.1193 46.7047 69.1193ZM46.7047 68.1818C45.4348 68.1818 44.6934 66.9077 44.6934 64.6364C44.6934 62.3693 45.4434 61.0739 46.7047 61.0739C47.9661 61.0739 48.7161 62.3693 48.7161 64.6364C48.7161 66.9077 47.9746 68.1818 46.7047 68.1818ZM54.2047 69.1193C56.1309 69.1193 57.2388 67.4872 57.2388 64.6364C57.2388 61.8068 56.1138 60.1534 54.2047 60.1534C52.2956 60.1534 51.1706 61.8068 51.1706 64.6364C51.1706 67.4872 52.2786 69.1193 54.2047 69.1193ZM54.2047 68.1818C52.9348 68.1818 52.1934 66.9077 52.1934 64.6364C52.1934 62.3693 52.9434 61.0739 54.2047 61.0739C55.4661 61.0739 56.2161 62.3693 56.2161 64.6364C56.2161 66.9077 55.4746 68.1818 54.2047 68.1818ZM61.7047 69.1193C63.6309 69.1193 64.7388 67.4872 64.7388 64.6364C64.7388 61.8068 63.6138 60.1534 61.7047 60.1534C59.7956 60.1534 58.6706 61.8068 58.6706 64.6364C58.6706 67.4872 59.7786 69.1193 61.7047 69.1193ZM61.7047 68.1818C60.4348 68.1818 59.6934 66.9077 59.6934 64.6364C59.6934 62.3693 60.4434 61.0739 61.7047 61.0739C62.9661 61.0739 63.7161 62.3693 63.7161 64.6364C63.7161 66.9077 62.9746 68.1818 61.7047 68.1818Z" fill="#718EBF"/>
<path d="M20.8265 31.0909H21.5254V30.1406C23.3152 30.017 24.3209 28.9602 24.3209 27.6307C24.3209 25.9943 22.7697 25.4659 21.8663 25.2273L21.5254 25.1335V22.1037C22.4288 22.1932 23.0851 22.679 23.1788 23.4545H24.2015C24.1589 22.2102 23.068 21.2642 21.5254 21.1619V20.1818H20.8265V21.1747C19.3649 21.3239 18.2697 22.2528 18.2697 23.5909C18.2697 24.767 19.122 25.4659 20.4856 25.858L20.8265 25.956V29.1818C19.9316 29.0881 19.1987 28.6278 19.122 27.75H18.0311C18.1291 29.0923 19.1518 30.0298 20.8265 30.1406V31.0909ZM21.5254 29.1818V26.1562L21.5595 26.1648C22.4799 26.4205 23.2981 26.7443 23.2981 27.6136C23.2981 28.4702 22.5566 29.0668 21.5254 29.1818ZM20.8265 24.946C20.1788 24.7628 19.2924 24.4048 19.2924 23.5398C19.2924 22.8026 19.889 22.2401 20.8265 22.1165V24.946ZM25.7005 28.2102H29.8084V30H30.8141V28.2102H32.0073V27.2727H30.8141V21.2727H29.5357L25.7005 27.3409V28.2102ZM29.8084 27.2727H26.8425V27.2045L29.7402 22.6193H29.8084V27.2727ZM36.4508 30.1193C38.377 30.1193 39.4849 28.4872 39.4849 25.6364C39.4849 22.8068 38.3599 21.1534 36.4508 21.1534C34.5417 21.1534 33.4167 22.8068 33.4167 25.6364C33.4167 28.4872 34.5247 30.1193 36.4508 30.1193ZM36.4508 29.1818C35.1809 29.1818 34.4395 27.9077 34.4395 25.6364C34.4395 23.3693 35.1895 22.0739 36.4508 22.0739C37.7122 22.0739 38.4622 23.3693 38.4622 25.6364C38.4622 27.9077 37.7207 29.1818 36.4508 29.1818ZM42.3166 28.8068H41.2257L41.1745 29.2841C41.051 30.4389 40.8081 31.5895 40.6973 32.1307H41.4643C41.6689 31.5511 42.1035 30.2386 42.2484 29.267L42.3166 28.8068ZM46.7047 30.1193C48.6309 30.1193 49.7388 28.4872 49.7388 25.6364C49.7388 22.8068 48.6138 21.1534 46.7047 21.1534C44.7956 21.1534 43.6706 22.8068 43.6706 25.6364C43.6706 28.4872 44.7786 30.1193 46.7047 30.1193ZM46.7047 29.1818C45.4348 29.1818 44.6934 27.9077 44.6934 25.6364C44.6934 23.3693 45.4434 22.0739 46.7047 22.0739C47.9661 22.0739 48.7161 23.3693 48.7161 25.6364C48.7161 27.9077 47.9746 29.1818 46.7047 29.1818ZM54.2047 30.1193C56.1309 30.1193 57.2388 28.4872 57.2388 25.6364C57.2388 22.8068 56.1138 21.1534 54.2047 21.1534C52.2956 21.1534 51.1706 22.8068 51.1706 25.6364C51.1706 28.4872 52.2786 30.1193 54.2047 30.1193ZM54.2047 29.1818C52.9348 29.1818 52.1934 27.9077 52.1934 25.6364C52.1934 23.3693 52.9434 22.0739 54.2047 22.0739C55.4661 22.0739 56.2161 23.3693 56.2161 25.6364C56.2161 27.9077 55.4746 29.1818 54.2047 29.1818ZM61.7047 30.1193C63.6309 30.1193 64.7388 28.4872 64.7388 25.6364C64.7388 22.8068 63.6138 21.1534 61.7047 21.1534C59.7956 21.1534 58.6706 22.8068 58.6706 25.6364C58.6706 28.4872 59.7786 30.1193 61.7047 30.1193ZM61.7047 29.1818C60.4348 29.1818 59.6934 27.9077 59.6934 25.6364C59.6934 23.3693 60.4434 22.0739 61.7047 22.0739C62.9661 22.0739 63.7161 23.3693 63.7161 25.6364C63.7161 27.9077 62.9746 29.1818 61.7047 29.1818Z" fill="#718EBF"/>
<path d="M53.7797 187.091H54.4785V186.141C56.2683 186.017 57.274 184.96 57.274 183.631C57.274 181.994 55.7229 181.466 54.8194 181.227L54.4785 181.134V178.104C55.3819 178.193 56.0382 178.679 56.1319 179.455H57.1547C57.1121 178.21 56.0211 177.264 54.4785 177.162V176.182H53.7797V177.175C52.318 177.324 51.2229 178.253 51.2229 179.591C51.2229 180.767 52.0751 181.466 53.4388 181.858L53.7797 181.956V185.182C52.8848 185.088 52.1518 184.628 52.0751 183.75H50.9842C51.0822 185.092 52.105 186.03 53.7797 186.141V187.091ZM54.4785 185.182V182.156L54.5126 182.165C55.4331 182.42 56.2513 182.744 56.2513 183.614C56.2513 184.47 55.5098 185.067 54.4785 185.182ZM53.7797 180.946C53.1319 180.763 52.2456 180.405 52.2456 179.54C52.2456 178.803 52.8422 178.24 53.7797 178.116V180.946ZM61.7047 186.119C63.6309 186.119 64.7388 184.487 64.7388 181.636C64.7388 178.807 63.6138 177.153 61.7047 177.153C59.7957 177.153 58.6707 178.807 58.6707 181.636C58.6707 184.487 59.7786 186.119 61.7047 186.119ZM61.7047 185.182C60.4349 185.182 59.6934 183.908 59.6934 181.636C59.6934 179.369 60.4434 178.074 61.7047 178.074C62.9661 178.074 63.7161 179.369 63.7161 181.636C63.7161 183.908 62.9746 185.182 61.7047 185.182Z" fill="#718EBF"/>
<rect x="71.2055" y="186.384" width="267.589" height="0.410995" stroke="#DFE5EE" stroke-width="0.410995" stroke-dasharray="4 4"/>
<rect x="71.2055" y="148.572" width="267.589" height="0.410995" stroke="#DFE5EE" stroke-width="0.410995" stroke-dasharray="4 4"/>
<rect x="71.2055" y="109.117" width="267.589" height="0.410995" stroke="#DFE5EE" stroke-width="0.410995" stroke-dasharray="4 4"/>
<rect x="71.2055" y="69.6609" width="267.589" height="0.410995" stroke="#DFE5EE" stroke-width="0.410995" stroke-dasharray="4 4"/>
<rect x="71.2055" y="30.2055" width="267.589" height="0.410995" stroke="#DFE5EE" stroke-width="0.410995" stroke-dasharray="4 4"/>
<path d="M84 162L132.584 94.8041L179.249 124.845L227.513 45L275.458 105.872L325 75.0405" stroke="#FCAA0B" stroke-width="3" stroke-linecap="round" stroke-linejoin="round"/>
<circle cx="84" cy="162" r="3.75" fill="white" stroke="#EDA10D" stroke-width="2.5"/>
<circle cx="133" cy="95" r="3.75" fill="white" stroke="#EDA10D" stroke-width="2.5"/>
<circle cx="179" cy="124" r="3.75" fill="white" stroke="#EDA10D" stroke-width="2.5"/>
<circle cx="227" cy="46" r="3.75" fill="white" stroke="#EDA10D" stroke-width="2.5"/>
<circle cx="276" cy="105" r="3.75" fill="white" stroke="#EDA10D" stroke-width="2.5"/>
<circle cx="325" cy="75" r="3.75" fill="white" stroke="#EDA10D" stroke-width="2.5"/>
</svg>
