<svg width="328" height="191" viewBox="0 0 328 191" fill="none" xmlns="http://www.w3.org/2000/svg">
<path d="M60.3279 188H65.8336V187.062H61.7768V186.994L63.737 184.898C65.237 183.291 65.6802 182.541 65.6802 181.574C65.6802 180.227 64.5893 179.153 63.0552 179.153C61.5254 179.153 60.362 180.193 60.362 181.727H61.3677C61.3677 180.734 62.0112 180.074 63.0211 180.074C63.9671 180.074 64.6916 180.653 64.6916 181.574C64.6916 182.379 64.2186 182.976 63.2086 184.08L60.3279 187.233V188ZM70.4401 188.119C72.3663 188.119 73.4742 186.487 73.4742 183.636C73.4742 180.807 72.3492 179.153 70.4401 179.153C68.5311 179.153 67.4061 180.807 67.4061 183.636C67.4061 186.487 68.514 188.119 70.4401 188.119ZM70.4401 187.182C69.1703 187.182 68.4288 185.908 68.4288 183.636C68.4288 181.369 69.1788 180.074 70.4401 180.074C71.7015 180.074 72.4515 181.369 72.4515 183.636C72.4515 185.908 71.71 187.182 70.4401 187.182ZM78.1617 179.273H77.1049L74.9231 180.722V181.795L77.0538 180.381H77.1049V188H78.1617V179.273ZM83.5694 188.119C85.3336 188.141 86.4842 186.811 86.4842 185.188C86.4842 183.5 85.2356 182.29 83.7399 182.29C82.8407 182.29 82.0694 182.729 81.5921 183.449H81.524C81.5282 181.322 82.3549 180.091 83.7058 180.091C84.6262 180.091 85.1802 180.67 85.3762 181.455H86.416C86.2029 180.099 85.1717 179.153 83.7058 179.153C81.7413 179.153 80.5353 180.892 80.5353 183.977C80.5353 187.203 82.1376 188.102 83.5694 188.119ZM83.5694 187.182C82.4742 187.182 81.6731 186.249 81.6774 185.205C81.6816 184.161 82.5211 183.227 83.6035 183.227C84.6731 183.227 85.4615 184.105 85.4615 185.188C85.4615 186.295 84.639 187.182 83.5694 187.182Z" fill="#718EBF"/>
<path d="M108.831 188H114.336V187.062H110.279V186.994L112.24 184.898C113.74 183.291 114.183 182.541 114.183 181.574C114.183 180.227 113.092 179.153 111.558 179.153C110.028 179.153 108.865 180.193 108.865 181.727H109.87C109.87 180.734 110.514 180.074 111.524 180.074C112.47 180.074 113.194 180.653 113.194 181.574C113.194 182.379 112.721 182.976 111.711 184.08L108.831 187.233V188ZM118.943 188.119C120.869 188.119 121.977 186.487 121.977 183.636C121.977 180.807 120.852 179.153 118.943 179.153C117.034 179.153 115.909 180.807 115.909 183.636C115.909 186.487 117.017 188.119 118.943 188.119ZM118.943 187.182C117.673 187.182 116.931 185.908 116.931 183.636C116.931 181.369 117.681 180.074 118.943 180.074C120.204 180.074 120.954 181.369 120.954 183.636C120.954 185.908 120.213 187.182 118.943 187.182ZM126.664 179.273H125.608L123.426 180.722V181.795L125.556 180.381H125.608V188H126.664V179.273ZM129.447 188H130.555L134.441 180.261V179.273H128.851V180.21H133.351V180.278L129.447 188Z" fill="#718EBF"/>
<path d="M156.747 188H162.253V187.062H158.196V186.994L160.156 184.898C161.656 183.291 162.1 182.541 162.1 181.574C162.1 180.227 161.009 179.153 159.475 179.153C157.945 179.153 156.781 180.193 156.781 181.727H157.787C157.787 180.734 158.431 180.074 159.441 180.074C160.387 180.074 161.111 180.653 161.111 181.574C161.111 182.379 160.638 182.976 159.628 184.08L156.747 187.233V188ZM166.86 188.119C168.786 188.119 169.894 186.487 169.894 183.636C169.894 180.807 168.769 179.153 166.86 179.153C164.95 179.153 163.825 180.807 163.825 183.636C163.825 186.487 164.933 188.119 166.86 188.119ZM166.86 187.182C165.59 187.182 164.848 185.908 164.848 183.636C164.848 181.369 165.598 180.074 166.86 180.074C168.121 180.074 168.871 181.369 168.871 183.636C168.871 185.908 168.129 187.182 166.86 187.182ZM174.581 179.273H173.524L171.343 180.722V181.795L173.473 180.381H173.524V188H174.581V179.273ZM179.887 188.119C181.629 188.119 182.844 187.101 182.852 185.682C182.844 184.578 182.107 183.641 181.165 183.466V183.415C181.983 183.202 182.52 182.401 182.529 181.472C182.52 180.142 181.404 179.153 179.887 179.153C178.352 179.153 177.236 180.142 177.245 181.472C177.236 182.401 177.773 183.202 178.608 183.415V183.466C177.649 183.641 176.912 184.578 176.921 185.682C176.912 187.101 178.127 188.119 179.887 188.119ZM179.887 187.182C178.689 187.182 177.952 186.568 177.96 185.631C177.952 184.646 178.766 183.943 179.887 183.943C180.99 183.943 181.804 184.646 181.813 185.631C181.804 186.568 181.067 187.182 179.887 187.182ZM179.887 183.04C178.932 183.04 178.259 182.443 178.267 181.54C178.259 180.653 178.906 180.074 179.887 180.074C180.85 180.074 181.497 180.653 181.506 181.54C181.497 182.443 180.824 183.04 179.887 183.04Z" fill="#718EBF"/>
<path d="M205.382 188H210.887V187.062H206.831V186.994L208.791 184.898C210.291 183.291 210.734 182.541 210.734 181.574C210.734 180.227 209.643 179.153 208.109 179.153C206.579 179.153 205.416 180.193 205.416 181.727H206.421C206.421 180.734 207.065 180.074 208.075 180.074C209.021 180.074 209.745 180.653 209.745 181.574C209.745 182.379 209.272 182.976 208.262 184.08L205.382 187.233V188ZM215.494 188.119C217.42 188.119 218.528 186.487 218.528 183.636C218.528 180.807 217.403 179.153 215.494 179.153C213.585 179.153 212.46 180.807 212.46 183.636C212.46 186.487 213.568 188.119 215.494 188.119ZM215.494 187.182C214.224 187.182 213.482 185.908 213.482 183.636C213.482 181.369 214.232 180.074 215.494 180.074C216.755 180.074 217.505 181.369 217.505 183.636C217.505 185.908 216.764 187.182 215.494 187.182ZM223.215 179.273H222.159L219.977 180.722V181.795L222.107 180.381H222.159V188H223.215V179.273ZM228.504 179.153C226.731 179.132 225.589 180.466 225.589 182.068C225.589 183.756 226.833 184.966 228.333 184.966C229.237 184.966 230.004 184.523 230.481 183.807H230.549C230.549 185.955 229.714 187.182 228.367 187.182C227.447 187.182 226.884 186.602 226.697 185.801H225.657C225.862 187.182 226.902 188.119 228.367 188.119C230.328 188.119 231.538 186.381 231.538 183.278C231.538 180.074 229.936 179.17 228.504 179.153ZM228.504 180.091C229.595 180.091 230.396 181.028 230.396 182.051C230.396 183.091 229.544 184.028 228.47 184.028C227.396 184.028 226.612 183.159 226.612 182.068C226.612 180.977 227.43 180.091 228.504 180.091Z" fill="#718EBF"/>
<path d="M252.873 188H258.378V187.062H254.322V186.994L256.282 184.898C257.782 183.291 258.225 182.541 258.225 181.574C258.225 180.227 257.134 179.153 255.6 179.153C254.07 179.153 252.907 180.193 252.907 181.727H253.912C253.912 180.734 254.556 180.074 255.566 180.074C256.512 180.074 257.236 180.653 257.236 181.574C257.236 182.379 256.763 182.976 255.753 184.08L252.873 187.233V188ZM262.985 188.119C264.911 188.119 266.019 186.487 266.019 183.636C266.019 180.807 264.894 179.153 262.985 179.153C261.076 179.153 259.951 180.807 259.951 183.636C259.951 186.487 261.059 188.119 262.985 188.119ZM262.985 187.182C261.715 187.182 260.973 185.908 260.973 183.636C260.973 181.369 261.723 180.074 262.985 180.074C264.246 180.074 264.996 181.369 264.996 183.636C264.996 185.908 264.255 187.182 262.985 187.182ZM267.638 188H273.144V187.062H269.087V186.994L271.047 184.898C272.547 183.291 272.991 182.541 272.991 181.574C272.991 180.227 271.9 179.153 270.366 179.153C268.836 179.153 267.672 180.193 267.672 181.727H268.678C268.678 180.734 269.322 180.074 270.331 180.074C271.277 180.074 272.002 180.653 272.002 181.574C272.002 182.379 271.529 182.976 270.519 184.08L267.638 187.233V188ZM277.75 188.119C279.677 188.119 280.785 186.487 280.785 183.636C280.785 180.807 279.66 179.153 277.75 179.153C275.841 179.153 274.716 180.807 274.716 183.636C274.716 186.487 275.824 188.119 277.75 188.119ZM277.75 187.182C276.481 187.182 275.739 185.908 275.739 183.636C275.739 181.369 276.489 180.074 277.75 180.074C279.012 180.074 279.762 181.369 279.762 183.636C279.762 185.908 279.02 187.182 277.75 187.182Z" fill="#718EBF"/>
<path d="M300.834 188H306.339V187.062H302.282V186.994L304.243 184.898C305.743 183.291 306.186 182.541 306.186 181.574C306.186 180.227 305.095 179.153 303.561 179.153C302.031 179.153 300.868 180.193 300.868 181.727H301.873C301.873 180.734 302.517 180.074 303.527 180.074C304.473 180.074 305.197 180.653 305.197 181.574C305.197 182.379 304.724 182.976 303.714 184.08L300.834 187.233V188ZM310.946 188.119C312.872 188.119 313.98 186.487 313.98 183.636C313.98 180.807 312.855 179.153 310.946 179.153C309.037 179.153 307.912 180.807 307.912 183.636C307.912 186.487 309.02 188.119 310.946 188.119ZM310.946 187.182C309.676 187.182 308.934 185.908 308.934 183.636C308.934 181.369 309.684 180.074 310.946 180.074C312.207 180.074 312.957 181.369 312.957 183.636C312.957 185.908 312.216 187.182 310.946 187.182ZM315.599 188H321.105V187.062H317.048V186.994L319.008 184.898C320.508 183.291 320.951 182.541 320.951 181.574C320.951 180.227 319.861 179.153 318.326 179.153C316.797 179.153 315.633 180.193 315.633 181.727H316.639C316.639 180.734 317.282 180.074 318.292 180.074C319.238 180.074 319.963 180.653 319.963 181.574C319.963 182.379 319.49 182.976 318.48 184.08L315.599 187.233V188ZM325.933 179.273H324.876L322.694 180.722V181.795L324.825 180.381H324.876V188H325.933V179.273Z" fill="#718EBF"/>
<path d="M9.46214 130.091H10.161V129.141C11.9508 129.017 12.9565 127.96 12.9565 126.631C12.9565 124.994 11.4053 124.466 10.5019 124.227L10.161 124.134V121.104C11.0644 121.193 11.7207 121.679 11.8144 122.455H12.8371C12.7945 121.21 11.7036 120.264 10.161 120.162V119.182H9.46214V120.175C8.00049 120.324 6.90532 121.253 6.90532 122.591C6.90532 123.767 7.75759 124.466 9.12123 124.858L9.46214 124.956V128.182C8.56725 128.088 7.8343 127.628 7.75759 126.75H6.66668C6.76469 128.092 7.78742 129.03 9.46214 129.141V130.091ZM10.161 128.182V125.156L10.1951 125.165C11.1155 125.42 11.9337 125.744 11.9337 126.614C11.9337 127.47 11.1922 128.067 10.161 128.182ZM9.46214 123.946C8.81441 123.763 7.92805 123.405 7.92805 122.54C7.92805 121.803 8.52464 121.24 9.46214 121.116V123.946ZM17.6088 120.273H16.552L14.3702 121.722V122.795L16.5008 121.381H16.552V129H17.6088V120.273ZM22.9653 129.119C24.8915 129.119 25.9994 127.487 25.9994 124.636C25.9994 121.807 24.8744 120.153 22.9653 120.153C21.0562 120.153 19.9312 121.807 19.9312 124.636C19.9312 127.487 21.0392 129.119 22.9653 129.119ZM22.9653 128.182C21.6954 128.182 20.954 126.908 20.954 124.636C20.954 122.369 21.704 121.074 22.9653 121.074C24.2267 121.074 24.9767 122.369 24.9767 124.636C24.9767 126.908 24.2352 128.182 22.9653 128.182ZM28.8311 127.807H27.7402L27.6891 128.284C27.5655 129.439 27.3226 130.589 27.2118 131.131H27.9788C28.1834 130.551 28.618 129.239 28.7629 128.267L28.8311 127.807ZM33.2192 129.119C35.1454 129.119 36.2533 127.487 36.2533 124.636C36.2533 121.807 35.1283 120.153 33.2192 120.153C31.3101 120.153 30.1851 121.807 30.1851 124.636C30.1851 127.487 31.2931 129.119 33.2192 129.119ZM33.2192 128.182C31.9494 128.182 31.2079 126.908 31.2079 124.636C31.2079 122.369 31.9579 121.074 33.2192 121.074C34.4806 121.074 35.2306 122.369 35.2306 124.636C35.2306 126.908 34.4891 128.182 33.2192 128.182ZM40.7192 129.119C42.6454 129.119 43.7533 127.487 43.7533 124.636C43.7533 121.807 42.6283 120.153 40.7192 120.153C38.8101 120.153 37.6851 121.807 37.6851 124.636C37.6851 127.487 38.7931 129.119 40.7192 129.119ZM40.7192 128.182C39.4494 128.182 38.7079 126.908 38.7079 124.636C38.7079 122.369 39.4579 121.074 40.7192 121.074C41.9806 121.074 42.7306 122.369 42.7306 124.636C42.7306 126.908 41.9891 128.182 40.7192 128.182ZM48.2192 129.119C50.1454 129.119 51.2533 127.487 51.2533 124.636C51.2533 121.807 50.1283 120.153 48.2192 120.153C46.3101 120.153 45.1851 121.807 45.1851 124.636C45.1851 127.487 46.2931 129.119 48.2192 129.119ZM48.2192 128.182C46.9494 128.182 46.2079 126.908 46.2079 124.636C46.2079 122.369 46.9579 121.074 48.2192 121.074C49.4806 121.074 50.2306 122.369 50.2306 124.636C50.2306 126.908 49.4891 128.182 48.2192 128.182Z" fill="#718EBF"/>
<path d="M7.79514 91.0909H8.49401V90.1406C10.2838 90.017 11.2895 88.9602 11.2895 87.6307C11.2895 85.9943 9.73833 85.4659 8.83492 85.2273L8.49401 85.1335V82.1037C9.39742 82.1932 10.0537 82.679 10.1474 83.4545H11.1701C11.1275 82.2102 10.0366 81.2642 8.49401 81.1619V80.1818H7.79514V81.1747C6.3335 81.3239 5.23833 82.2528 5.23833 83.5909C5.23833 84.767 6.0906 85.4659 7.45423 85.858L7.79514 85.956V89.1818C6.90026 89.0881 6.1673 88.6278 6.0906 87.75H4.99969C5.0977 89.0923 6.12043 90.0298 7.79514 90.1406V91.0909ZM8.49401 89.1818V86.1562L8.5281 86.1648C9.44855 86.4205 10.2667 86.7443 10.2667 87.6136C10.2667 88.4702 9.52526 89.0668 8.49401 89.1818ZM7.79514 84.946C7.14742 84.7628 6.26105 84.4048 6.26105 83.5398C6.26105 82.8026 6.85764 82.2401 7.79514 82.1165V84.946ZM12.8736 90H18.3793V89.0625H14.3225V88.9943L16.2827 86.8977C17.7827 85.2912 18.2259 84.5412 18.2259 83.5739C18.2259 82.2273 17.135 81.1534 15.6009 81.1534C14.0711 81.1534 12.9077 82.1932 12.9077 83.7273H13.9134C13.9134 82.7344 14.5569 82.0739 15.5668 82.0739C16.5128 82.0739 17.2373 82.6534 17.2373 83.5739C17.2373 84.3793 16.7642 84.9759 15.7543 86.0795L12.8736 89.233V90ZM22.9858 90.1193C24.912 90.1193 26.0199 88.4872 26.0199 85.6364C26.0199 82.8068 24.8949 81.1534 22.9858 81.1534C21.0767 81.1534 19.9517 82.8068 19.9517 85.6364C19.9517 88.4872 21.0597 90.1193 22.9858 90.1193ZM22.9858 89.1818C21.716 89.1818 20.9745 87.9077 20.9745 85.6364C20.9745 83.3693 21.7245 82.0739 22.9858 82.0739C24.2472 82.0739 24.9972 83.3693 24.9972 85.6364C24.9972 87.9077 24.2557 89.1818 22.9858 89.1818ZM28.8516 88.8068H27.7607L27.7096 89.2841C27.586 90.4389 27.3431 91.5895 27.2323 92.1307H27.9993C28.2039 91.5511 28.6385 90.2386 28.7834 89.267L28.8516 88.8068ZM33.2397 90.1193C35.1659 90.1193 36.2738 88.4872 36.2738 85.6364C36.2738 82.8068 35.1488 81.1534 33.2397 81.1534C31.3307 81.1534 30.2057 82.8068 30.2057 85.6364C30.2057 88.4872 31.3136 90.1193 33.2397 90.1193ZM33.2397 89.1818C31.9699 89.1818 31.2284 87.9077 31.2284 85.6364C31.2284 83.3693 31.9784 82.0739 33.2397 82.0739C34.5011 82.0739 35.2511 83.3693 35.2511 85.6364C35.2511 87.9077 34.5096 89.1818 33.2397 89.1818ZM40.7397 90.1193C42.6659 90.1193 43.7738 88.4872 43.7738 85.6364C43.7738 82.8068 42.6488 81.1534 40.7397 81.1534C38.8307 81.1534 37.7057 82.8068 37.7057 85.6364C37.7057 88.4872 38.8136 90.1193 40.7397 90.1193ZM40.7397 89.1818C39.4699 89.1818 38.7284 87.9077 38.7284 85.6364C38.7284 83.3693 39.4784 82.0739 40.7397 82.0739C42.0011 82.0739 42.7511 83.3693 42.7511 85.6364C42.7511 87.9077 42.0096 89.1818 40.7397 89.1818ZM48.2397 90.1193C50.1659 90.1193 51.2738 88.4872 51.2738 85.6364C51.2738 82.8068 50.1488 81.1534 48.2397 81.1534C46.3307 81.1534 45.2057 82.8068 45.2057 85.6364C45.2057 88.4872 46.3136 90.1193 48.2397 90.1193ZM48.2397 89.1818C46.9699 89.1818 46.2284 87.9077 46.2284 85.6364C46.2284 83.3693 46.9784 82.0739 48.2397 82.0739C49.5011 82.0739 50.2511 83.3693 50.2511 85.6364C50.2511 87.9077 49.5096 89.1818 48.2397 89.1818Z" fill="#718EBF"/>
<path d="M7.88513 52.0909H8.58399V51.1406C10.3738 51.017 11.3794 49.9602 11.3794 48.6307C11.3794 46.9943 9.82831 46.4659 8.9249 46.2273L8.58399 46.1335V43.1037C9.4874 43.1932 10.1437 43.679 10.2374 44.4545H11.2601C11.2175 43.2102 10.1266 42.2642 8.58399 42.1619V41.1818H7.88513V42.1747C6.42348 42.3239 5.32831 43.2528 5.32831 44.5909C5.32831 45.767 6.18058 46.4659 7.54422 46.858L7.88513 46.956V50.1818C6.99024 50.0881 6.25729 49.6278 6.18058 48.75H5.08967C5.18769 50.0923 6.21041 51.0298 7.88513 51.1406V52.0909ZM8.58399 50.1818V47.1562L8.61808 47.1648C9.53854 47.4205 10.3567 47.7443 10.3567 48.6136C10.3567 49.4702 9.61524 50.0668 8.58399 50.1818ZM7.88513 45.946C7.2374 45.7628 6.35104 45.4048 6.35104 44.5398C6.35104 43.8026 6.94763 43.2401 7.88513 43.1165V45.946ZM15.9125 51.1193C17.6042 51.1193 18.8613 50.0582 18.8613 48.6307C18.8613 47.5227 18.2051 46.7173 17.1057 46.5341V46.4659C17.9878 46.1974 18.5375 45.473 18.5375 44.4886C18.5375 43.2528 17.5616 42.1534 15.9466 42.1534C14.438 42.1534 13.1852 43.0824 13.1341 44.4545H14.1568C14.1951 43.5852 15.0218 43.0739 15.9295 43.0739C16.8926 43.0739 17.5147 43.6577 17.5147 44.5398C17.5147 45.4602 16.7946 46.0568 15.7591 46.0568H15.0602V46.9943H15.7591C17.0843 46.9943 17.8216 47.6676 17.8216 48.6307C17.8216 49.5554 17.0162 50.1818 15.8954 50.1818C14.8855 50.1818 14.0843 49.6619 14.0204 48.8182H12.9466C13.0105 50.1903 14.2207 51.1193 15.9125 51.1193ZM23.4508 51.1193C25.377 51.1193 26.4849 49.4872 26.4849 46.6364C26.4849 43.8068 25.3599 42.1534 23.4508 42.1534C21.5417 42.1534 20.4167 43.8068 20.4167 46.6364C20.4167 49.4872 21.5247 51.1193 23.4508 51.1193ZM23.4508 50.1818C22.1809 50.1818 21.4395 48.9077 21.4395 46.6364C21.4395 44.3693 22.1895 43.0739 23.4508 43.0739C24.7122 43.0739 25.4622 44.3693 25.4622 46.6364C25.4622 48.9077 24.7207 50.1818 23.4508 50.1818ZM29.3166 49.8068H28.2257L28.1745 50.2841C28.051 51.4389 27.8081 52.5895 27.6973 53.1307H28.4643C28.6689 52.5511 29.1035 51.2386 29.2484 50.267L29.3166 49.8068ZM33.7047 51.1193C35.6309 51.1193 36.7388 49.4872 36.7388 46.6364C36.7388 43.8068 35.6138 42.1534 33.7047 42.1534C31.7956 42.1534 30.6706 43.8068 30.6706 46.6364C30.6706 49.4872 31.7786 51.1193 33.7047 51.1193ZM33.7047 50.1818C32.4348 50.1818 31.6934 48.9077 31.6934 46.6364C31.6934 44.3693 32.4434 43.0739 33.7047 43.0739C34.9661 43.0739 35.7161 44.3693 35.7161 46.6364C35.7161 48.9077 34.9746 50.1818 33.7047 50.1818ZM41.2047 51.1193C43.1309 51.1193 44.2388 49.4872 44.2388 46.6364C44.2388 43.8068 43.1138 42.1534 41.2047 42.1534C39.2956 42.1534 38.1706 43.8068 38.1706 46.6364C38.1706 49.4872 39.2786 51.1193 41.2047 51.1193ZM41.2047 50.1818C39.9348 50.1818 39.1934 48.9077 39.1934 46.6364C39.1934 44.3693 39.9434 43.0739 41.2047 43.0739C42.4661 43.0739 43.2161 44.3693 43.2161 46.6364C43.2161 48.9077 42.4746 50.1818 41.2047 50.1818ZM48.7047 51.1193C50.6309 51.1193 51.7388 49.4872 51.7388 46.6364C51.7388 43.8068 50.6138 42.1534 48.7047 42.1534C46.7956 42.1534 45.6706 43.8068 45.6706 46.6364C45.6706 49.4872 46.7786 51.1193 48.7047 51.1193ZM48.7047 50.1818C47.4348 50.1818 46.6934 48.9077 46.6934 46.6364C46.6934 44.3693 47.4434 43.0739 48.7047 43.0739C49.9661 43.0739 50.7161 44.3693 50.7161 46.6364C50.7161 48.9077 49.9746 50.1818 48.7047 50.1818Z" fill="#718EBF"/>
<path d="M7.82654 13.0909H8.5254V12.1406C10.3152 12.017 11.3209 10.9602 11.3209 9.63068C11.3209 7.99432 9.76972 7.46591 8.86631 7.22727L8.5254 7.13352V4.10369C9.42881 4.19318 10.0851 4.67898 10.1788 5.45455H11.2015C11.1589 4.21023 10.068 3.2642 8.5254 3.16193V2.18182H7.82654V3.17472C6.36489 3.32386 5.26972 4.25284 5.26972 5.59091C5.26972 6.76705 6.12199 7.46591 7.48563 7.85795L7.82654 7.95597V11.1818C6.93165 11.0881 6.19869 10.6278 6.12199 9.75H5.03108C5.12909 11.0923 6.15182 12.0298 7.82654 12.1406V13.0909ZM8.5254 11.1818V8.15625L8.55949 8.16477C9.47994 8.42045 10.2981 8.74432 10.2981 9.61364C10.2981 10.4702 9.55665 11.0668 8.5254 11.1818ZM7.82654 6.94602C7.17881 6.76278 6.29244 6.40483 6.29244 5.53977C6.29244 4.80256 6.88904 4.24006 7.82654 4.11648V6.94602ZM12.7005 10.2102H16.8084V12H17.8141V10.2102H19.0073V9.27273H17.8141V3.27273H16.5357L12.7005 9.34091V10.2102ZM16.8084 9.27273H13.8425V9.20455L16.7402 4.61932H16.8084V9.27273ZM23.4508 12.1193C25.377 12.1193 26.4849 10.4872 26.4849 7.63636C26.4849 4.80682 25.3599 3.15341 23.4508 3.15341C21.5417 3.15341 20.4167 4.80682 20.4167 7.63636C20.4167 10.4872 21.5247 12.1193 23.4508 12.1193ZM23.4508 11.1818C22.1809 11.1818 21.4395 9.90767 21.4395 7.63636C21.4395 5.36932 22.1895 4.07386 23.4508 4.07386C24.7122 4.07386 25.4622 5.36932 25.4622 7.63636C25.4622 9.90767 24.7207 11.1818 23.4508 11.1818ZM29.3166 10.8068H28.2257L28.1745 11.2841C28.051 12.4389 27.8081 13.5895 27.6973 14.1307H28.4643C28.6689 13.5511 29.1035 12.2386 29.2484 11.267L29.3166 10.8068ZM33.7047 12.1193C35.6309 12.1193 36.7388 10.4872 36.7388 7.63636C36.7388 4.80682 35.6138 3.15341 33.7047 3.15341C31.7956 3.15341 30.6706 4.80682 30.6706 7.63636C30.6706 10.4872 31.7786 12.1193 33.7047 12.1193ZM33.7047 11.1818C32.4348 11.1818 31.6934 9.90767 31.6934 7.63636C31.6934 5.36932 32.4434 4.07386 33.7047 4.07386C34.9661 4.07386 35.7161 5.36932 35.7161 7.63636C35.7161 9.90767 34.9746 11.1818 33.7047 11.1818ZM41.2047 12.1193C43.1309 12.1193 44.2388 10.4872 44.2388 7.63636C44.2388 4.80682 43.1138 3.15341 41.2047 3.15341C39.2956 3.15341 38.1706 4.80682 38.1706 7.63636C38.1706 10.4872 39.2786 12.1193 41.2047 12.1193ZM41.2047 11.1818C39.9348 11.1818 39.1934 9.90767 39.1934 7.63636C39.1934 5.36932 39.9434 4.07386 41.2047 4.07386C42.4661 4.07386 43.2161 5.36932 43.2161 7.63636C43.2161 9.90767 42.4746 11.1818 41.2047 11.1818ZM48.7047 12.1193C50.6309 12.1193 51.7388 10.4872 51.7388 7.63636C51.7388 4.80682 50.6138 3.15341 48.7047 3.15341C46.7956 3.15341 45.6706 4.80682 45.6706 7.63636C45.6706 10.4872 46.7786 12.1193 48.7047 12.1193ZM48.7047 11.1818C47.4348 11.1818 46.6934 9.90767 46.6934 7.63636C46.6934 5.36932 47.4434 4.07386 48.7047 4.07386C49.9661 4.07386 50.7161 5.36932 50.7161 7.63636C50.7161 9.90767 49.9746 11.1818 48.7047 11.1818Z" fill="#718EBF"/>
<path d="M40.7797 169.091H41.4785V168.141C43.2683 168.017 44.274 166.96 44.274 165.631C44.274 163.994 42.7229 163.466 41.8194 163.227L41.4785 163.134V160.104C42.3819 160.193 43.0382 160.679 43.1319 161.455H44.1547C44.1121 160.21 43.0211 159.264 41.4785 159.162V158.182H40.7797V159.175C39.318 159.324 38.2229 160.253 38.2229 161.591C38.2229 162.767 39.0751 163.466 40.4388 163.858L40.7797 163.956V167.182C39.8848 167.088 39.1518 166.628 39.0751 165.75H37.9842C38.0822 167.092 39.105 168.03 40.7797 168.141V169.091ZM41.4785 167.182V164.156L41.5126 164.165C42.4331 164.42 43.2513 164.744 43.2513 165.614C43.2513 166.47 42.5098 167.067 41.4785 167.182ZM40.7797 162.946C40.1319 162.763 39.2456 162.405 39.2456 161.54C39.2456 160.803 39.8422 160.24 40.7797 160.116V162.946ZM48.7047 168.119C50.6309 168.119 51.7388 166.487 51.7388 163.636C51.7388 160.807 50.6138 159.153 48.7047 159.153C46.7957 159.153 45.6707 160.807 45.6707 163.636C45.6707 166.487 46.7786 168.119 48.7047 168.119ZM48.7047 167.182C47.4349 167.182 46.6934 165.908 46.6934 163.636C46.6934 161.369 47.4434 160.074 48.7047 160.074C49.9661 160.074 50.7161 161.369 50.7161 163.636C50.7161 165.908 49.9746 167.182 48.7047 167.182Z" fill="#718EBF"/>
<rect x="58.2055" y="168.384" width="267.589" height="0.410995" stroke="#DFE5EE" stroke-width="0.410995" stroke-dasharray="4 4"/>
<rect x="58.2055" y="130.572" width="267.589" height="0.410995" stroke="#DFE5EE" stroke-width="0.410995" stroke-dasharray="4 4"/>
<rect x="58.2055" y="91.1166" width="267.589" height="0.410995" stroke="#DFE5EE" stroke-width="0.410995" stroke-dasharray="4 4"/>
<rect x="58.2055" y="51.6609" width="267.589" height="0.410995" stroke="#DFE5EE" stroke-width="0.410995" stroke-dasharray="4 4"/>
<rect x="58.2055" y="12.2055" width="267.589" height="0.410995" stroke="#DFE5EE" stroke-width="0.410995" stroke-dasharray="4 4"/>
<path d="M60 126C64.165 120.613 67.0485 116.054 76.0194 116.054C84.9903 116.054 87.8738 90.7754 100.689 88.7034C113.505 86.6313 117.99 123.928 130.806 123.099C143.621 122.27 141.699 70.0551 154.835 64.6678C167.971 59.2805 173.097 41.8754 185.913 41.0466C198.728 40.2178 201.612 88.7034 214.107 88.7034C226.602 88.7034 230.126 57.2085 241.34 57.2085C252.553 57.2085 258.641 75.0279 272.097 75.4424C285.553 75.4424 285.874 110.253 298.049 110.253C310.223 110.253 315.35 33.5873 324 34.0017" stroke="#16DBCC" stroke-width="3" stroke-linecap="round" stroke-linejoin="round"/>
</svg>
