<svg width="20" height="20" viewBox="0 0 20 20" fill="none" xmlns="http://www.w3.org/2000/svg">
<g clip-path="url(#clip0_2_308)">
<path d="M3.84903 13.3343C4.05015 13.4539 4.22283 13.6097 4.36063 13.7896H6.96476V11.2645L5.72995 10.4989C5.45494 10.3284 5.37022 9.96723 5.54071 9.69221C5.71124 9.41728 6.07226 9.33256 6.34739 9.50297L7.55064 10.249L8.59945 9.59875C6.50753 6.73027 6.98796 2.66576 9.7725 0.371683C5.18574 -1.16489 0.374203 2.2508 0.352486 7.15648C0.341159 9.75807 1.72622 12.0705 3.84903 13.3343Z" fill="#B1B1B1"/>
<path d="M4.72705 14.9614H10.2734V16.2894H4.72705V14.9614Z" fill="#B1B1B1"/>
<path d="M8.13647 11.2645V13.7896H10.6319C10.7644 13.6148 10.9297 13.465 11.1221 13.3517C11.6546 13.0383 12.1435 12.656 12.5768 12.2184C11.3529 11.9428 10.2537 11.3342 9.37972 10.4931C9.3464 10.5147 9.10623 10.6633 8.13647 11.2645Z" fill="#B1B1B1"/>
<path d="M14.0621 0.00186157C10.9899 0.00186157 8.47668 2.54057 8.47668 5.62633C8.47668 8.52887 10.7048 10.9324 13.5617 11.1889C16.8679 11.4843 19.6475 8.86341 19.6475 5.62633C19.6475 2.54654 17.1419 0.00186157 14.0621 0.00186157ZM14.6488 8.16578V8.28823C14.6488 8.61179 14.3864 8.87411 14.0629 8.87411C13.7393 8.87411 13.477 8.61179 13.477 8.28823V8.23202C13.2071 8.18468 12.9604 8.08368 12.6489 7.87983C12.3781 7.7027 12.3022 7.33961 12.4793 7.06881C12.6565 6.79798 13.0196 6.72213 13.2903 6.89922C13.5759 7.08608 13.6685 7.10065 14.0589 7.09795C14.4358 7.09545 14.586 6.79958 14.6153 6.62518C14.6417 6.4686 14.6121 6.26041 14.3217 6.1578C13.8353 5.98583 13.3365 5.7885 12.9831 5.51134C12.1784 4.88023 12.4214 3.43876 13.477 3.05517V2.97033C13.477 2.64677 13.7394 2.38445 14.0629 2.38445C14.3865 2.38445 14.6488 2.64677 14.6488 2.97033V3.00283C14.9375 3.08431 15.17 3.23167 15.3297 3.39408C15.5566 3.62476 15.5534 3.9957 15.3228 4.2226C15.0922 4.44937 14.7215 4.44636 14.4946 4.21607C14.4619 4.18416 14.2815 4.03367 13.8907 4.15135C13.7347 4.19834 13.6928 4.36012 13.6837 4.40859C13.6646 4.50976 13.6917 4.57795 13.7063 4.58936C13.9273 4.7627 14.3388 4.92101 14.7123 5.05303C16.2564 5.59883 16.0683 7.65259 14.6488 8.16578Z" fill="#B1B1B1"/>
<path d="M5.66443 18.1642C5.66443 19.1765 6.48795 20 7.50019 20C8.51244 20 9.33596 19.1765 9.33596 18.1642V17.4612H5.66443V18.1642Z" fill="#B1B1B1"/>
</g>
<defs>
<clipPath id="clip0_2_308">
<rect width="20" height="20" fill="white"/>
</clipPath>
</defs>
</svg>
