<svg width="20" height="20" viewBox="0 0 20 20" fill="none" xmlns="http://www.w3.org/2000/svg">
<g clip-path="url(#clip0_2_239)">
<path d="M4.16663 18.3333C4.16715 18.7752 4.34291 19.1988 4.65536 19.5113C4.96781 19.8237 5.39143 19.9995 5.83329 20H14.1666C14.6085 19.9995 15.0321 19.8237 15.3446 19.5113C15.657 19.1988 15.8328 18.7752 15.8333 18.3333V17.6042H4.16663V18.3333Z" fill="#B1B1B1"/>
<path d="M15.8333 1.66666C15.8328 1.22479 15.657 0.801173 15.3446 0.488726C15.0321 0.176279 14.6085 0.000516155 14.1666 -7.62939e-06L5.83329 -7.62939e-06C5.39143 0.000516155 4.96781 0.176279 4.65536 0.488726C4.34291 0.801173 4.16715 1.22479 4.16663 1.66666V2.49999H15.8333V1.66666Z" fill="#B1B1B1"/>
<path d="M19.7677 5.3604L17.2677 2.75624L16.0654 3.9104L17.1114 4.99999H15.8333V6.66665H17.2013L16.09 7.73166L17.2431 8.93499L19.7431 6.53915C19.8222 6.4634 19.8855 6.3728 19.9296 6.27255C19.9736 6.17229 19.9974 6.06434 19.9997 5.95487C20.002 5.8454 19.9827 5.73656 19.9429 5.63455C19.9031 5.53255 19.8436 5.43939 19.7677 5.3604Z" fill="#B1B1B1"/>
<path d="M13.3333 4.99997H15.8333V3.33331H4.16663V13.3333H6.66663V15H4.16663V16.6666H15.8333V6.66664H13.3333V4.99997ZM12.5 8.33331H9.58329C9.47279 8.33331 9.36681 8.3772 9.28866 8.45534C9.21052 8.53348 9.16663 8.63947 9.16663 8.74997C9.16663 8.86048 9.21052 8.96646 9.28866 9.0446C9.36681 9.12274 9.47279 9.16664 9.58329 9.16664H10.4166C10.9333 9.16612 11.4317 9.35759 11.8151 9.70388C12.1985 10.0502 12.4396 10.5266 12.4915 11.0406C12.5434 11.5546 12.4025 12.0696 12.0961 12.4856C11.7897 12.9016 11.3396 13.1888 10.8333 13.2916V14.1666H9.16663V13.3333H7.49996V11.6666H10.4166C10.5271 11.6666 10.6331 11.6227 10.7113 11.5446C10.7894 11.4665 10.8333 11.3605 10.8333 11.25C10.8333 11.1395 10.7894 11.0335 10.7113 10.9553C10.6331 10.8772 10.5271 10.8333 10.4166 10.8333H9.58329C9.06665 10.8338 8.56824 10.6424 8.18482 10.2961C7.8014 9.94978 7.56034 9.47338 7.50841 8.95935C7.45649 8.44532 7.59742 7.93033 7.90384 7.51436C8.21026 7.09839 8.66031 6.81112 9.16663 6.70831V5.83331H10.8333V6.66664H12.5V8.33331Z" fill="#B1B1B1"/>
<path d="M2.79862 13.3333L3.90987 12.2683L2.75674 11.065L0.256745 13.4608C0.177692 13.5366 0.114344 13.6272 0.0703209 13.7274C0.0262982 13.8277 0.00246423 13.9356 0.000181182 14.0451C-0.00210186 14.1546 0.0172108 14.2634 0.0570153 14.3654C0.0968199 14.4674 0.156336 14.5606 0.232162 14.6396L2.73216 17.2437L3.93445 16.0896L2.88852 15H4.16664V13.3333H2.79862Z" fill="#B1B1B1"/>
</g>
<defs>
<clipPath id="clip0_2_239">
<rect width="20" height="20" fill="white"/>
</clipPath>
</defs>
</svg>
